<svg xmlns="http://www.w3.org/2000/svg" version="1.1" xmlns:xlink="http://www.w3.org/1999/xlink" xmlns:svgjs="http://svgjs.dev/svgjs" width="1000" height="750" viewBox="0 0 1000 750"><rect width="1000" height="750" fill="#ffffff"></rect><g transform="matrix(0.834,0,0,0.834,82.49454628812492,326.17304254765116)"><svg viewBox="0 0 396 46" data-background-color="#135da6" preserveAspectRatio="xMidYMid meet" height="116" width="1000" xmlns="http://www.w3.org/2000/svg" xmlns:xlink="http://www.w3.org/1999/xlink"><g id="tight-bounds" transform="matrix(1,0,0,1,0.23999960419968147,0.21632633073920715)"><svg viewBox="0 0 395.52 45.56734967775621" height="45.56734967775621" width="395.52"><g><svg viewBox="0 0 452.8848424121311 52.17627927272728" height="45.56734967775621" width="395.52"><g transform="matrix(1,0,0,1,0,0.9186850909090971)"><svg viewBox="0 0 395.52 50.338909090909084" height="50.338909090909084" width="395.52"><g id="textblocktransform"><svg viewBox="0 0 395.52 50.338909090909084" height="50.338909090909084" width="395.52" id="textblock"><g><svg viewBox="0 0 395.52 50.338909090909084" height="50.338909090909084" width="395.52"><g transform="matrix(1,0,0,1,0,0)"><svg width="395.52" viewBox="0 -50 343.739990234375 43.75" height="50.338909090909084" data-palette-color="#ffffff"><path d="M43.75-6.25L12.5-6.25 12.5-12.5 6.25-12.5 6.25-18.75 0-18.75 0-37.5 6.25-37.5 6.25-43.75 12.5-43.75 12.5-50 43.75-50 43.75-43.75 18.75-43.75 18.75-37.5 12.5-37.5 12.5-18.75 18.75-18.75 18.75-12.5 31.25-12.5 31.25-25 25-25 25-31.25 43.75-31.25 43.75-6.25ZM62.5-6.25L50-6.25 50-37.5 56.25-37.5 56.25-43.75 62.5-43.75 62.5-50 81.25-50 81.25-43.75 87.5-43.75 87.5-37.5 93.75-37.5 93.75-6.25 81.25-6.25 81.25-18.75 62.5-18.75 62.5-6.25ZM62.5-37.5L62.5-25 81.25-25 81.25-37.5 75-37.5 75-43.75 68.75-43.75 68.75-37.5 62.5-37.5ZM137.5-6.25L100-6.25 100-50 137.5-50 137.5-43.75 143.75-43.75 143.75-31.25 137.5-31.25 137.5-25 143.75-25 143.75-12.5 137.5-12.5 137.5-6.25ZM112.5-43.75L112.5-31.25 131.25-31.25 131.25-43.75 112.5-43.75ZM112.5-25L112.5-12.5 131.25-12.5 131.25-25 112.5-25ZM187.49-6.25L156.24-6.25 156.24-12.5 149.99-12.5 149.99-43.75 156.24-43.75 156.24-50 187.49-50 187.49-43.75 193.74-43.75 193.74-12.5 187.49-12.5 187.49-6.25ZM162.49-43.75L162.49-12.5 181.24-12.5 181.24-43.75 162.49-43.75ZM231.24-6.25L199.99-6.25 199.99-50 231.24-50 231.24-43.75 237.49-43.75 237.49-37.5 243.74-37.5 243.74-18.75 237.49-18.75 237.49-12.5 231.24-12.5 231.24-6.25ZM212.49-43.75L212.49-12.5 224.99-12.5 224.99-18.75 231.24-18.75 231.24-37.5 224.99-37.5 224.99-43.75 212.49-43.75ZM293.74-6.25L249.99-6.25 249.99-50 293.74-50 293.74-43.75 262.49-43.75 262.49-31.25 287.49-31.25 287.49-25 262.49-25 262.49-12.5 293.74-12.5 293.74-6.25ZM324.99-6.25L318.74-6.25 318.74-12.5 312.49-12.5 312.49-18.75 306.24-18.75 306.24-25 299.99-25 299.99-50 312.49-50 312.49-31.25 318.74-31.25 318.74-25 324.99-25 324.99-31.25 331.24-31.25 331.24-50 343.74-50 343.74-25 337.49-25 337.49-18.75 331.24-18.75 331.24-12.5 324.99-12.5 324.99-6.25Z" opacity="1" transform="matrix(1,0,0,1,0,0)" fill="#000000" class="wordmark-text-0" data-fill-palette-color="primary" id="text-0"></path></svg></g></svg></g></svg></g></svg></g><g transform="matrix(1,0,0,1,407.40380830254543,0)"><svg viewBox="0 0 45.48103410958564 52.17627927272728" height="52.17627927272728" width="45.48103410958564"><g><svg xmlns="http://www.w3.org/2000/svg" xmlns:xlink="http://www.w3.org/1999/xlink" version="1.1" viewBox="6.4639997482299805 0.3470050096511841 83.0719985961914 95.30099487304688" x="0" y="0" height="52.17627927272728" width="45.48103410958564" class="icon-icon-0" data-fill-palette-color="accent" id="icon-0"><path d="M8.464 95.648c-0.344 0-0.692-0.084-1-0.264-0.62-0.36-1-1.016-1-1.736v-91.296c0-0.716 0.38-1.376 1-1.732 0.612-0.364 1.384-0.364 2 0l79.072 45.636c0.62 0.36 1 1.02 1 1.736 0 0.72-0.38 1.376-1 1.736l-79.072 45.656c-0.308 0.172-0.656 0.264-1 0.264zM10.464 5.82v84.368l73.072-42.192-73.072-42.176z" fill="#000000" data-fill-palette-color="accent"></path><path d="M20.464 70.032c-0.36 0-0.724-0.092-1.04-0.296-0.596-0.36-0.96-1.008-0.96-1.704v-40.06c0-0.7 0.364-1.348 0.96-1.712 0.592-0.368 1.336-0.392 1.96-0.072l38.696 20.032c0.664 0.344 1.084 1.032 1.084 1.768s-0.416 1.424-1.084 1.776l-38.696 20.028c-0.288 0.16-0.604 0.24-0.92 0.24zM22.464 31.26v33.476l32.344-16.744-32.344-16.732z" fill="#000000" data-fill-palette-color="accent"></path></svg></g></svg></g></svg></g><defs></defs></svg><rect width="395.52" height="45.56734967775621" fill="none" stroke="none" visibility="hidden"></rect></g></svg></g></svg>