<svg xmlns="http://www.w3.org/2000/svg" version="1.1" xmlns:xlink="http://www.w3.org/1999/xlink" xmlns:svgjs="http://svgjs.dev/svgjs" width="128" height="128" viewBox="0 0 128 128"><g transform="matrix(0.8046875,0,0,0.8046875,12.642029830911127,5.555233470394732)"><svg viewBox="0 0 83 95" data-background-color="#135da6" preserveAspectRatio="xMidYMid meet" height="146" width="128" xmlns="http://www.w3.org/2000/svg" xmlns:xlink="http://www.w3.org/1999/xlink"><g id="tight-bounds" transform="matrix(1,0,0,1,-0.11445122296721877,-0.24049999999999727)"><svg viewBox="0 0 83.22890244593445 95.48099999999998" height="95.48099999999998" width="83.22890244593445"><g><svg viewBox="0 0 83.22890244593445 95.48099999999998" height="95.48099999999998" width="83.22890244593445"><g><svg viewBox="0 0 83.22890244593445 95.48099999999998" height="95.48099999999998" width="83.22890244593445"><g id="textblocktransform"><svg viewBox="0 0 83.22890244593445 95.48099999999998" height="95.48099999999998" width="83.22890244593445" id="textblock"><g><svg viewBox="0 0 83.22890244593445 95.48099999999998" height="95.48099999999998" width="83.22890244593445"><g><svg viewBox="0 0 83.22890244593445 95.48099999999998" height="95.48099999999998" width="83.22890244593445"><g><svg xmlns="http://www.w3.org/2000/svg" xmlns:xlink="http://www.w3.org/1999/xlink" version="1.1" viewBox="6.464 0.34699999999998965 83.072 95.301" x="0" y="0" height="95.48099999999998" width="83.22890244593445" class="icon-icon-0" data-fill-palette-color="accent" id="icon-0"><path d="M8.464 95.648c-0.344 0-0.692-0.084-1-0.264-0.62-0.36-1-1.016-1-1.736v-91.296c0-0.716 0.38-1.376 1-1.732 0.612-0.364 1.384-0.364 2 0l79.072 45.636c0.62 0.36 1 1.02 1 1.736 0 0.72-0.38 1.376-1 1.736l-79.072 45.656c-0.308 0.172-0.656 0.264-1 0.264zM10.464 5.82v84.368l73.072-42.192-73.072-42.176z" fill="#000000" data-fill-palette-color="accent"></path><path d="M20.464 70.032c-0.36 0-0.724-0.092-1.04-0.296-0.596-0.36-0.96-1.008-0.96-1.704v-40.06c0-0.7 0.364-1.348 0.96-1.712 0.592-0.368 1.336-0.392 1.96-0.072l38.696 20.032c0.664 0.344 1.084 1.032 1.084 1.768s-0.416 1.424-1.084 1.776l-38.696 20.028c-0.288 0.16-0.604 0.24-0.92 0.24zM22.464 31.26v33.476l32.344-16.744-32.344-16.732z" fill="#000000" data-fill-palette-color="accent"></path></svg></g></svg></g></svg></g></svg></g></svg></g></svg></g><defs></defs></svg><rect width="83.22890244593445" height="95.48099999999998" fill="none" stroke="none" visibility="hidden"></rect></g></svg></g></svg>